<svg width="39" height="38" viewBox="0 0 39 38" fill="none" xmlns="http://www.w3.org/2000/svg">
<g opacity="0.5" clip-path="url(#clip0)">
<path d="M35.6734 25.9147C34.7786 25.1041 33.511 24.4409 32.1687 24.4409C31.1248 24.4409 30.0808 24.8093 30.0808 25.7673C30.0808 26.7253 30.9756 26.9464 33.1381 27.3885C35.6734 27.978 38.4325 29.2308 38.4325 32.3995C38.4325 36.5262 34.7041 38 31.3485 38C28.664 38 25.8304 37.1157 24.1154 35.4208L27.1727 32.2521C28.142 33.2838 29.6334 34.0944 31.2739 34.0944C32.1687 34.0944 33.2127 33.7259 33.2127 32.6943C33.2127 31.6626 32.1687 31.3678 29.9317 30.7783C27.6201 30.2625 25.0847 29.0834 25.0847 25.9884C25.0847 22.0828 28.8132 20.4615 32.0196 20.4615C34.4803 20.4615 37.0902 21.2721 38.7307 22.746L35.6734 25.9147Z" fill="#333333"/>
<path d="M8.76923 38C13.6123 38 17.5385 34.0739 17.5385 29.2308C17.5385 24.3877 13.6123 20.4615 8.76923 20.4615C3.92612 20.4615 0 24.3877 0 29.2308C0 34.0739 3.92612 38 8.76923 38Z" fill="#7BC7FF"/>
<path d="M36.1248 15.3462H25.9906C24.5428 15.3462 23.3846 14.188 23.3846 12.7402V2.60595C23.3846 1.1582 24.5428 0 25.9906 0H36.1248C37.5726 0 38.7308 1.1582 38.7308 2.60595V12.7402C38.7308 14.1156 37.5726 15.3462 36.1248 15.3462Z" fill="#FEC06D"/>
<path d="M7.29794 0.864572L0.235752 12.8245C-0.426328 13.9772 0.382881 15.3462 1.70704 15.3462H15.8314C17.1556 15.3462 17.9648 13.9052 17.3027 12.8245L10.3141 0.864572C9.652 -0.288191 7.96002 -0.288191 7.29794 0.864572Z" fill="#FA7AB7"/>
</g>
<defs>
<clipPath id="clip0">
<rect width="38.7308" height="38" fill="white"/>
</clipPath>
</defs>
</svg>
