<svg width="90" height="30" viewBox="0 0 90 30" fill="none" xmlns="http://www.w3.org/2000/svg">
<g opacity="0.5">
<path d="M7.46799 10.5566C6.91323 10.0225 6.10242 9.61162 5.20626 9.61162C4.52347 9.61162 3.88336 9.85815 3.88336 10.4334C3.88336 11.0086 4.4808 11.173 5.84637 11.4606C7.46799 11.8304 9.30299 12.611 9.30299 14.6243C9.30299 17.254 6.91323 18.1579 4.69417 18.1579C2.94452 18.1579 1.10953 17.5827 0 16.5555L2.00569 14.5422C2.6458 15.1996 3.58464 15.6926 4.65149 15.6926C5.24893 15.6926 5.93172 15.4461 5.93172 14.7887C5.93172 14.1313 5.24893 13.9258 3.79801 13.5971C2.30441 13.2684 0.682788 12.5289 0.682788 10.5977C0.682788 8.13246 3.11522 7.10526 5.16358 7.10526C6.74253 7.10526 8.40683 7.59832 9.47368 8.54334L7.46799 10.5566Z" fill="#333333"/>
<path d="M18.1579 18.1579C14.7293 18.1579 11.8421 15.9721 11.8421 12.5903C11.8421 9.16732 14.7293 7.10526 18.1579 7.10526C21.5865 7.10526 24.4737 9.20856 24.4737 12.5903C24.4737 15.9721 21.5865 18.1579 18.1579 18.1579ZM18.1579 9.90966C16.3985 9.90966 15.4962 11.2294 15.4962 12.5491C15.4962 13.8688 16.4436 15.2298 18.203 15.2298C19.9624 15.2298 20.9098 13.8688 20.9098 12.5491C20.9098 11.2294 19.9173 9.90966 18.1579 9.90966Z" fill="#333333"/>
<path d="M26.8421 18.1579V1.57895H30.7895V18.1579H26.8421Z" fill="#333333"/>
<path d="M42.7742 18.6498V17.1619H42.7267C42.156 18.0972 40.7768 18.9474 39.1122 18.9474C35.8782 18.9474 34.7368 16.6943 34.7368 14.5688V7.89474H38.7317V13.7186C38.7317 14.9089 39.0647 16.0142 40.4914 16.0142C41.8706 16.0142 42.6316 14.9514 42.6316 13.7186V7.89474H46.5789V18.6073H42.7742V18.6498Z" fill="#333333"/>
<path d="M56.162 9.84765C55.6721 8.97507 54.6478 8.3518 53.4008 8.3518C52.1984 8.3518 50.996 8.80886 50.996 10.0139C50.996 11.0111 51.8421 11.4681 53.7126 11.8006C56.3846 12.2992 57.6316 13.2548 57.6316 14.8753C57.6316 17.2853 55.4494 18.1579 53.4008 18.1579C51.7085 18.1579 49.9717 17.5346 48.9474 16.1219L50.2389 15.2078C50.8178 16.1219 52.0648 16.8698 53.3563 16.8698C54.7369 16.8698 56.0284 16.4127 56.0284 15.0416C56.0284 13.9197 54.8259 13.5042 52.6883 13.0055C51.3522 12.7147 49.4373 12.1745 49.4373 10.1801C49.4373 8.06094 51.3968 7.10526 53.4454 7.10526C55.0041 7.10526 56.6964 7.81163 57.4089 9.01662L56.162 9.84765Z" fill="#828282"/>
<path d="M66.3155 18.1579C62.6198 18.1579 60 15.7895 60 12.6316C60 9.47368 62.6198 7.10526 66.3155 7.10526C70.0112 7.10526 72.631 9.47368 72.631 12.6316C72.6777 15.7895 70.058 18.1579 66.3155 18.1579ZM66.3155 8.3518C63.5554 8.3518 61.8245 10.2632 61.8245 12.59C61.8245 14.9584 63.5554 16.8283 66.3155 16.8283C69.0756 16.8283 70.8065 14.9584 70.8065 12.59C70.8533 10.2216 69.1224 8.3518 66.3155 8.3518Z" fill="#828282"/>
<path d="M81.2177 8.42422H78.4148V18.1579H76.6864V8.42422H74.2105V7.0711H76.6864V4.05934C76.6864 1.57136 77.9944 0 80.7038 0C81.1242 0 81.6848 0.0436488 82.1052 0.174595L81.7782 1.61501C81.4045 1.52771 81.0308 1.44041 80.6104 1.44041C78.7418 1.44041 78.3681 2.66258 78.3681 4.27758V7.11475H81.171V8.42422H81.2177Z" fill="#828282"/>
<path d="M89.9513 8.35307H86.4425V14.7456C86.4425 16.387 87.2222 16.7757 88.2944 16.7757C88.7817 16.7757 89.3665 16.6461 89.8538 16.4302L89.9513 17.8124C89.3178 18.0283 88.6355 18.1579 87.8558 18.1579C86.54 18.1579 84.6881 17.6396 84.6881 15.2208V8.35307H82.1053V7.01408H84.6881V3.94737H86.4913V7.05727H90V8.35307H89.9513Z" fill="#828282"/>
<path d="M52.1053 29.2105C53.8493 29.2105 55.2632 27.7967 55.2632 26.0526C55.2632 24.3086 53.8493 22.8947 52.1053 22.8947C50.3612 22.8947 48.9474 24.3086 48.9474 26.0526C48.9474 27.7967 50.3612 29.2105 52.1053 29.2105Z" fill="#8075FF"/>
<path d="M77.9014 29.2105H73.7177C73.1143 29.2105 72.6316 28.7278 72.6316 28.1244V23.9809C72.6316 23.3775 73.1143 22.8947 73.7177 22.8947H77.8612C78.4646 22.8947 78.9474 23.3775 78.9474 23.9809V28.1244C78.9474 28.7278 78.4646 29.2105 77.9014 29.2105Z" fill="#F79749"/>
<path d="M62.9501 23.2545L60.0981 28.1712C59.8169 28.6509 60.1784 29.2105 60.7006 29.2105H66.4047C66.9269 29.2105 67.2884 28.6509 67.0072 28.1712L64.1552 23.2545C63.874 22.7748 63.2313 22.7748 62.9501 23.2545Z" fill="#F73E6F"/>
</g>
</svg>
