<svg width="18" height="21" viewBox="0 0 18 21" fill="none" xmlns="http://www.w3.org/2000/svg">
<path d="M6.20089 11.7188H4.72768C4.4846 11.7188 4.28571 11.5131 4.28571 11.2617V9.73828C4.28571 9.48691 4.4846 9.28125 4.72768 9.28125H6.20089C6.44397 9.28125 6.64286 9.48691 6.64286 9.73828V11.2617C6.64286 11.5131 6.44397 11.7188 6.20089 11.7188ZM10.1786 11.2617V9.73828C10.1786 9.48691 9.97969 9.28125 9.73661 9.28125H8.26339C8.02031 9.28125 7.82143 9.48691 7.82143 9.73828V11.2617C7.82143 11.5131 8.02031 11.7188 8.26339 11.7188H9.73661C9.97969 11.7188 10.1786 11.5131 10.1786 11.2617ZM13.7143 11.2617V9.73828C13.7143 9.48691 13.5154 9.28125 13.2723 9.28125H11.7991C11.556 9.28125 11.3571 9.48691 11.3571 9.73828V11.2617C11.3571 11.5131 11.556 11.7188 11.7991 11.7188H13.2723C13.5154 11.7188 13.7143 11.5131 13.7143 11.2617ZM10.1786 14.918V13.3945C10.1786 13.1432 9.97969 12.9375 9.73661 12.9375H8.26339C8.02031 12.9375 7.82143 13.1432 7.82143 13.3945V14.918C7.82143 15.1693 8.02031 15.375 8.26339 15.375H9.73661C9.97969 15.375 10.1786 15.1693 10.1786 14.918ZM6.64286 14.918V13.3945C6.64286 13.1432 6.44397 12.9375 6.20089 12.9375H4.72768C4.4846 12.9375 4.28571 13.1432 4.28571 13.3945V14.918C4.28571 15.1693 4.4846 15.375 4.72768 15.375H6.20089C6.44397 15.375 6.64286 15.1693 6.64286 14.918ZM13.7143 14.918V13.3945C13.7143 13.1432 13.5154 12.9375 13.2723 12.9375H11.7991C11.556 12.9375 11.3571 13.1432 11.3571 13.3945V14.918C11.3571 15.1693 11.556 15.375 11.7991 15.375H13.2723C13.5154 15.375 13.7143 15.1693 13.7143 14.918ZM17.25 5.01562V18.4219C17.25 19.4312 16.4581 20.25 15.4821 20.25H2.51786C1.54185 20.25 0.75 19.4312 0.75 18.4219V5.01562C0.75 4.00635 1.54185 3.1875 2.51786 3.1875H4.28571V1.20703C4.28571 0.955664 4.4846 0.75 4.72768 0.75H6.20089C6.44397 0.75 6.64286 0.955664 6.64286 1.20703V3.1875H11.3571V1.20703C11.3571 0.955664 11.556 0.75 11.7991 0.75H13.2723C13.5154 0.75 13.7143 0.955664 13.7143 1.20703V3.1875H15.4821C16.4581 3.1875 17.25 4.00635 17.25 5.01562ZM15.4821 18.1934V6.84375H2.51786V18.1934C2.51786 18.319 2.6173 18.4219 2.73884 18.4219H15.2612C15.3827 18.4219 15.4821 18.319 15.4821 18.1934Z" fill="#BDBDBD"/>
</svg>
