<svg width="12" height="15" viewBox="0 0 12 15" fill="none" xmlns="http://www.w3.org/2000/svg">
<path d="M10.5834 6.66659H9.95835V4.79159C9.95835 2.60929 8.18231 0.833252 6.00002 0.833252C3.81773 0.833252 2.04169 2.60929 2.04169 4.79159V6.66659H1.41669C0.726583 6.66659 0.166687 7.22648 0.166687 7.91659V12.9166C0.166687 13.6067 0.726583 14.1666 1.41669 14.1666H10.5834C11.2735 14.1666 11.8334 13.6067 11.8334 12.9166V7.91659C11.8334 7.22648 11.2735 6.66659 10.5834 6.66659ZM7.87502 6.66659H4.12502V4.79159C4.12502 3.75773 4.96617 2.91659 6.00002 2.91659C7.03387 2.91659 7.87502 3.75773 7.87502 4.79159V6.66659Z" fill="#BDBDBD"/>
</svg>
